# xmcd CD database file
#
# Track frame offsets:
#	182
#	19857
#	40707
#	67782
#	88257
#	106557
#	126282
#	151407
#	187107
#	204507
#	221982
#	240882
#	261507
#	280407
#
# Disc length: 4022 seconds
#
# Revision: 0
# Processed by: cddbd v1.5.2PL0 Copyright (c) Steve Scherf et al.
# Submitted via: CDex 1.70beta2
#
DISCID=c60fb40e
DTITLE=Peter Lipa and T+R Band - Up To Date
DYEAR=1993
DGENRE=Jazz
TTITLE0=It`s A Tin To Tell A Lie
TTITLE1=Goin` Down To The River
TTITLE2=Let`s Go Get Stoned
TTITLE3=We Shall Overcome/We Shall Not Be Moved (Medley)
TTITLE4=The Preacher
TTITLE5=Misty
TTITLE6=Go Down Moses
TTITLE7=God Bless The Child
TTITLE8=It Don`t Mean A Thing If It Ain`t Got That Swing
TTITLE9=In The Heat Of The Night
TTITLE10=Sermonette
TTITLE11=Moon Over Bourbon Street
TTITLE12=I`m Just A Gigolo/ I Ain`t Got Nobody (Medley)
TTITLE13=On The Waves
EXTD=YEAR: 1993
EXTT0=
EXTT1=
EXTT2=
EXTT3=
EXTT4=
EXTT5=
EXTT6=
EXTT7=
EXTT8=
EXTT9=
EXTT10=
EXTT11=
EXTT12=
EXTT13=
PLAYORDER=
